<svg width="266" height="62" viewBox="0 0 266 62" fill="none" xmlns="http://www.w3.org/2000/svg">
<path d="M136.829 42.6197C136.872 40.7765 138.404 39.3154 140.251 39.3627C142.094 39.406 143.555 40.938 143.508 42.7851C143.465 44.5968 141.98 46.0422 140.168 46.0422C138.301 46.0185 136.809 44.4865 136.829 42.6197ZM177.977 15.9725V22.7426H167.796C164.362 22.7426 161.987 23.5343 160.672 25.0978C159.399 26.5747 158.761 28.8353 158.761 31.8797C158.761 35.2707 159.801 37.744 161.877 39.3075C162.708 39.9062 163.649 40.3354 164.645 40.5717C166.016 40.8514 167.414 40.9695 168.812 40.9301H177.973V47.712H166.331C163.814 47.8026 161.298 47.4718 158.891 46.7314C157.009 46.0461 155.343 44.8803 154.055 43.3444C151.314 40.1149 149.884 35.9717 150.046 31.7379C150.046 26.0824 151.637 21.8683 154.819 19.0918C156.135 17.9378 157.706 17.1107 159.399 16.6736C161.672 16.1498 163.999 15.9135 166.331 15.9686H177.973L177.977 15.9725ZM198.776 15.5118C204.502 15.5118 208.72 17.2053 211.433 20.5962C214.017 23.9242 215.344 28.0555 215.187 32.2657C215.392 36.7121 213.674 41.0365 210.476 44.132C207.59 46.822 203.647 48.1689 198.646 48.1728C193.47 48.1728 189.418 46.6526 186.496 43.6082C183.782 40.8671 182.423 36.8657 182.423 31.604C182.285 27.5593 183.672 23.6091 186.303 20.5293C189.189 17.2171 193.348 15.5433 198.776 15.5078M198.839 22.1598C193.707 22.1598 191.139 25.4208 191.139 31.9427C191.013 34.0419 191.454 36.1332 192.411 38.0039C193.734 40.3079 196.247 41.6706 198.902 41.5248C203.943 41.5248 206.463 38.2835 206.463 31.8049C206.463 25.468 203.923 22.2543 198.839 22.1598ZM221.484 15.9725H252.783C254.965 15.8977 257.146 16.1143 259.273 16.6184C260.707 17.0241 262.002 17.8157 263.026 18.8988C265.003 21.3169 266 24.3849 265.827 27.5042V47.716H257.304V28.8826C257.335 27.8113 257.272 26.744 257.115 25.6846C256.985 25.0663 256.674 24.5031 256.225 24.062C255.118 23.1089 253.677 22.6324 252.216 22.7466H247.698V47.7199H239.176V22.7466H230.015V47.7199H221.492V15.9765L221.484 15.9725ZM88.1933 31.8324L75.9055 15.5629H85.6688L93.0178 26.4014L100.985 15.5629H110.634L97.9526 31.8324L110.634 48.4367H101.265L93.0178 37.1532L84.9402 48.4367H75.4565L88.1933 31.8324ZM123.091 21.4272H108.716L113.702 15.5629H143.461V21.4272H131.063V48.4328H123.095V21.4272H123.091Z" fill="white"/>
<path d="M136.828 42.6175C136.871 40.7744 138.403 39.3132 140.251 39.3605C142.094 39.4038 143.555 40.9358 143.508 42.783C143.464 44.5946 141.979 46.04 140.168 46.04C138.301 46.0164 136.808 44.4843 136.828 42.6175Z" fill="white"/>
<path d="M31.2324 61.9991C14.1122 62.1291 0.130879 48.3526 0.000912064 31.2324C-0.129055 14.1122 13.6474 0.130879 30.7676 0.000912064C47.8878 -0.129055 61.8691 13.6474 61.9991 30.7676C61.9991 30.8464 61.9991 30.9212 61.9991 31C62.0424 48.0493 48.2817 61.9124 31.2324 61.9991ZM31.2324 4.60095C16.6524 4.49462 4.74667 16.231 4.64034 30.811C4.534 45.3909 16.2704 57.2967 30.8503 57.403C45.4303 57.5093 57.336 45.7729 57.4424 31.193C57.4424 31.13 57.4424 31.067 57.4424 31C57.4778 16.4791 45.7532 4.67184 31.2324 4.60095ZM32.3391 26.7465L38.2782 19.4802C38.9004 18.7162 38.7862 17.5937 38.0222 16.9675C37.711 16.7154 37.329 16.5737 36.9312 16.5658C36.4114 16.5658 35.9191 16.7982 35.5843 17.1999L30.0587 23.9463L24.5332 17.1999C24.2063 16.7942 23.71 16.5619 23.1862 16.5658H18.6295C17.6489 16.5737 16.8612 17.3771 16.869 18.3578C16.869 18.7673 17.0187 19.1651 17.2826 19.4802L25.502 29.5231L15.0062 42.3701C14.3603 43.1027 14.4312 44.2172 15.1637 44.8631C15.8963 45.509 17.0108 45.4381 17.6567 44.7056C17.6725 44.6898 17.6882 44.6702 17.704 44.6505L27.7863 32.3391L32.343 26.7465H32.3391ZM46.1156 16.5658C45.5957 16.5697 45.1034 16.8021 44.7686 17.1999L34.7257 29.527L30.169 35.1077L24.2299 42.3741C23.5998 43.1184 23.6903 44.2291 24.4347 44.8631C25.1791 45.4933 26.2936 45.3988 26.9238 44.6583L32.4493 37.9237L37.9749 44.6583C38.3057 45.064 38.802 45.2964 39.3218 45.2885H43.8707C44.8513 45.2806 45.639 44.4851 45.6351 43.5044C45.6351 43.0909 45.4854 42.6892 45.2176 42.3741L36.9982 32.343L47.494 19.4841C48.1123 18.7083 47.9824 17.578 47.2026 16.9596C46.8914 16.7115 46.5055 16.5737 46.1116 16.5697" fill="#FFBE40"/>
</svg>
