<svg width="329" height="62" viewBox="0 0 329 62" fill="none" xmlns="http://www.w3.org/2000/svg">
<path d="M31.5702 0C14.382 0 0.57019 13.8073 0.57019 31C0.57019 48.1927 14.3774 62 31.5702 62C48.7629 62 62.5702 48.1927 62.5702 31C62.2865 13.8073 48.4793 0 31.5702 0ZM34.3884 36.0736C35.2347 36.92 35.7975 37.7664 35.7975 39.1755C35.7975 41.4309 33.8256 43.4027 31.5702 43.4027C30.4447 43.4027 29.3147 42.84 28.4684 41.9937C27.0593 40.8682 25.3665 40.0218 23.1156 40.0218C20.8648 40.0218 19.172 40.8682 17.7629 41.9937L17.4793 42.2773C16.6329 42.84 15.7911 43.4027 14.6611 43.4027C13.5311 43.4027 12.6893 43.1191 11.8429 42.2773C11.6538 42.0882 11.4662 41.9006 11.2802 41.7146V41.4309L10.9965 41.1473C10.9965 40.8636 10.7129 40.5846 10.7129 40.3009C10.7129 40.0173 10.4338 39.4545 10.4338 39.1755C10.4338 38.6127 10.4338 38.3291 10.7129 38.05C10.7129 37.7664 10.9965 37.4873 10.9965 37.2037C10.9965 37.2037 10.9965 36.92 11.2802 36.92V36.6364C11.6553 36.6364 11.8429 36.5418 11.8429 36.3527L12.1266 36.0691C13.252 34.66 14.0984 32.9672 14.0984 30.9954C14.0984 29.0236 13.5357 27.3309 12.1266 25.9218C11.5638 25.0754 11.0011 23.95 11.0011 22.5409C11.0011 20.2854 12.9729 18.3136 15.2284 18.3136C17.4839 18.3136 19.172 20.2854 19.172 22.5409C19.172 23.6663 18.6093 24.7963 17.7629 25.6427C16.6329 27.0518 15.7911 29.0236 15.7911 30.9954C15.7911 32.9672 16.6375 34.939 17.7629 36.3481L18.042 36.6318C19.4511 37.7572 21.1438 38.6036 23.1156 38.6036C25.0875 38.6036 26.7802 38.0409 28.1893 36.6318C28.1893 36.3481 28.4729 36.3481 28.752 36.0691C29.8774 34.66 30.7238 32.9672 30.7238 30.9954C30.7238 29.0236 30.1611 27.3309 28.752 25.9218C27.9056 25.0754 27.3429 23.95 27.3429 22.5409C27.3429 20.2854 29.3147 18.3136 31.5702 18.3136C33.8256 18.3136 35.7975 20.2854 35.7975 22.5409C35.7975 23.6663 35.2347 24.7963 34.3884 25.6427C33.2629 27.0518 32.4166 28.7445 32.4166 30.9954C32.4166 32.9672 32.9793 34.66 34.3884 36.0691M39.7411 34.9436C37.4856 34.9436 35.5138 32.9718 35.5138 30.7164C35.5138 28.4609 37.4856 26.4891 39.7411 26.4891C41.9965 26.4891 43.9684 28.4609 43.9684 30.7164C43.9684 33.2509 41.9965 34.9436 39.7411 34.9436ZM50.7347 36.0736C50.9238 36.2627 50.9238 36.2627 50.7347 36.0736C51.0184 36.6364 51.2975 36.6364 51.2975 36.6364V36.92L51.5811 37.2037C51.5811 37.4873 51.8648 37.7664 51.8648 38.05C51.8648 38.3337 52.1484 38.8964 52.1484 39.1755C52.1484 39.7382 52.1484 40.0218 51.8648 40.3009C51.8648 40.5846 51.5811 40.8636 51.5811 41.1473C51.5811 41.1473 51.5811 41.4309 51.2975 41.4309V41.7146L50.7347 42.2773C49.8884 42.84 49.042 43.4027 47.9166 43.4027C46.7911 43.4027 45.9447 43.1191 45.0984 42.2773L44.5356 41.7146V41.4309L44.252 41.1473C44.252 40.8636 43.9684 40.5846 43.9684 40.3009C43.9684 40.0173 43.6847 39.4545 43.6847 39.1755C43.6847 38.6127 43.6847 38.3291 43.9684 38.05C43.9684 37.7664 44.252 37.4873 44.252 37.2037C44.252 37.2037 44.252 36.92 44.5356 36.92V36.6364L44.8193 36.3527L45.1029 36.0691C46.2284 34.66 47.0748 32.9672 47.0748 30.9954C47.0748 29.0236 46.512 27.3309 45.1029 25.9218C44.2566 25.0754 43.6939 23.95 43.6939 22.82C43.6939 20.5645 45.6657 18.5927 47.9211 18.5927C50.1766 18.5927 52.1484 20.5645 52.1484 22.82C52.1484 23.9454 51.5857 25.0754 50.7393 25.9218C49.6139 27.3309 48.7675 29.0236 48.7675 31.2745C48.7675 32.9672 49.6139 34.6554 50.7393 36.0645" fill="#F8E19A"/>
<path d="M89.3428 54.1074V7.60742H101.178V44.8065H122.031V54.1074H89.3428Z" fill="#F8E19A"/>
<path d="M328.605 54.1074L305.496 30.9992L328.605 7.89107H311.695L297.042 22.5447V7.60742H285.206V54.1074H297.042V39.4538L311.695 54.1074H328.605Z" fill="#F8E19A"/>
<path d="M193.615 45.0901L190.797 54.1074H178.395L194.462 7.60742H210.241L226.304 54.1074H213.905L211.087 45.0901L208.269 36.352L202.349 16.9083L196.15 36.352L193.615 45.0901Z" fill="#F8E19A"/>
<path d="M245.468 23.6701V54.1074H234.195V7.60742H248.849L266.325 39.4538V7.60742H277.598V54.1074H262.939L245.468 23.6701Z" fill="#F8E19A"/>
<path d="M169.661 36.0722C169.098 34.6631 168.252 33.5377 167.405 32.4077C166.559 31.5613 165.433 30.7149 164.024 30.1522C162.899 29.5895 161.49 29.3058 160.36 29.0268C161.485 28.7431 162.615 28.464 163.741 27.9013C164.866 27.3386 165.712 26.7759 166.559 25.9295C167.405 25.0831 167.968 24.2368 168.252 22.8277C168.814 21.7022 168.814 20.2931 168.814 18.884C168.814 17.475 168.531 16.0659 168.252 14.6568C167.689 13.2477 167.126 12.1222 165.717 10.9922C164.592 9.86678 163.183 9.02042 161.206 8.4577C159.234 7.89498 156.979 7.61133 154.161 7.61133H129.643V54.1113H155.853C160.643 54.1113 164.024 52.9859 166.563 50.7304C169.098 48.475 170.228 45.3777 170.228 41.4295C170.507 39.4577 170.228 37.765 169.665 36.0768M141.758 15.2149H154.156C155.282 15.2149 156.128 15.4986 156.974 15.7777C157.821 16.0613 158.383 16.3404 158.946 16.9031C159.509 17.4658 159.792 18.0285 160.072 18.5958C160.355 19.1586 160.355 19.7213 160.355 20.5676C160.355 21.9767 159.792 23.3858 158.946 24.2322C158.1 25.3576 156.412 25.6413 154.156 25.6413H141.758V15.2149ZM160.36 44.2431C159.513 45.3686 157.825 45.6522 155.57 45.6522H141.763V35.2258H155.57C156.695 35.2258 157.542 35.5095 158.388 35.7886C159.234 36.0676 159.797 36.3513 160.36 36.914C160.923 37.4767 161.206 38.044 161.485 38.6067C161.764 39.1695 161.769 39.7322 161.769 40.5786C161.769 41.9877 161.485 43.3967 160.36 44.2431Z" fill="#F8E19A"/>
</svg>
