<svg width="305" height="62" viewBox="0 0 305 62" fill="none" xmlns="http://www.w3.org/2000/svg">
<path d="M99.5623 43.7488L77.755 5.9353C72.9866 -1.9615 61.3236 -2.02225 56.707 6.2694L33.8063 45.6015C29.5238 52.7998 34.8086 61.8811 43.3736 61.8811H89.2357C97.8615 61.8811 104.331 52.5568 99.5623 43.7792V43.7488Z" fill="#3156AA"/>
<path d="M68.0964 46.6924L66.7601 44.3538C65.5148 42.167 62.7205 37.4896 62.7205 37.4896L44.2845 5.41647C39.5161 -1.72102 28.1872 -2.2981 23.3884 6.66173L1.91517 43.8374C-2.51919 51.6431 2.76559 61.7875 12.3936 61.8786H89.0533C77.2385 61.9697 73.442 55.8345 68.0964 46.6924Z" fill="#1972E2"/>
<path d="M68.0961 46.6929L66.7597 44.3542C65.5144 42.1674 62.7202 37.4901 62.7202 37.4901L50.8142 16.5332L33.7146 45.721C29.4321 52.9192 34.7169 62.0006 43.2819 62.0006H89.0833C77.1774 61.9094 73.472 55.8653 68.1264 46.7233L68.0961 46.6929Z" fill="url(#paint0_linear_9_343)"/>
<path d="M173.579 58.5065V14.8008H209.904V17.5647C209.904 19.7515 208.143 21.5131 205.956 21.5131H182.63V33.2671H205.956V39.9794H182.63V51.7335H205.956C208.143 51.7335 209.904 53.4951 209.904 55.6819V58.4458L173.579 58.5369V58.5065Z" fill="white"/>
<path d="M262.055 14.8008H253.49C251.911 14.8008 250.483 15.469 249.451 16.7446L239.124 29.744L228.797 16.8357C227.795 15.5905 226.368 14.8919 224.758 14.8919H216.193L233.566 36.6992L216.193 58.5065H224.758C226.337 58.5065 227.765 57.8384 228.797 56.5627L239.124 43.6545L249.511 56.6538C250.514 57.8383 251.941 58.5977 253.551 58.5977H262.116L244.743 36.7903L262.025 14.8312L262.055 14.8008Z" fill="white"/>
<path d="M145.15 53.8882L157.056 33.0832V58.4137H166.107V14.7383H160.488C158.726 14.7383 157.056 15.6495 156.205 17.2592L141.961 43.2579L127.716 17.2592C126.866 15.6798 125.195 14.7383 123.434 14.7383H117.815V58.444H126.866V33.1135L138.772 53.9186H145.15V53.8882Z" fill="white"/>
<path d="M285.714 59.0238C273.14 59.206 262.904 49.3046 262.813 36.7001C262.813 29.836 264.909 24.126 268.857 20.1776C272.806 16.3203 278.516 14.2246 285.289 14.2246C293.246 14.2246 299.533 16.9885 304.089 22.3644L301.234 24.7942C299.472 26.3128 296.86 26.3735 294.947 24.9764C292.426 23.0326 289.237 22.1214 285.623 22.1214C276.724 22.1214 271.439 27.4973 271.439 36.5483C271.439 45.5992 276.875 51.3092 285.623 51.3092C289.328 51.3092 292.426 50.3069 294.947 48.4542C296.8 47.0267 299.381 47.1178 301.234 48.6364L304.089 51.0662C299.564 56.351 293.52 59.0238 285.714 59.0238Z" fill="white"/>
<defs>
<linearGradient id="paint0_linear_9_343" x1="27.6098" y1="32.4483" x2="80.6398" y2="52.0384" gradientUnits="userSpaceOnUse">
<stop stop-color="#264CA2" stop-opacity="0"/>
<stop offset="1" stop-color="#234588"/>
</linearGradient>
</defs>
</svg>
