<svg width="215" height="62" viewBox="0 0 215 62" fill="none" xmlns="http://www.w3.org/2000/svg">
<g clip-path="url(#clip0_9_358)">
<path d="M39.8898 11.5541C36.8246 9.03235 32.6073 7.77148 27.2409 7.77148H13.8666V9.63745H26.9991C31.5626 9.63745 35.6964 10.5764 38.2184 12.7523C40.7405 14.9283 42.6477 18.1833 42.6477 22.1716C42.6477 26.1598 40.9912 28.8932 38.3677 31.0573C35.7442 33.2213 31.0642 34.1751 26.3813 34.1751H11.2998V36.0441H26.5007C32.1506 36.0441 36.562 34.819 39.7406 32.3688C42.9193 29.9186 44.5101 26.4698 44.5161 22.0255C44.5161 17.5663 42.982 14.0758 39.9167 11.5571" fill="white"/>
<path d="M38.7552 14.2566C36.848 12.8109 34.6573 11.6484 28.4582 11.6484H18.1432V13.4667C18.1432 13.4667 22.7575 13.4071 28.2283 13.4667C33.5142 13.5233 35.4542 14.1165 37.2331 15.431C39.5074 17.1122 40.9221 19.1868 40.9221 22.0901C40.9221 24.9933 39.4865 26.8593 37.2002 28.5494C34.8603 30.2693 31.2846 30.2902 29.8281 30.3379H22.1695V32.1561C22.1695 32.1561 25.7063 32.2068 27.8941 32.1561C32.9113 32.0458 35.89 31.7478 38.6597 29.691C41.2624 27.7625 42.6383 25.2199 42.6383 21.9977C42.6383 17.7471 40.5102 15.6069 38.7582 14.2745" fill="white"/>
<path d="M37.8417 16.6603C36.4121 15.7661 35.1555 15.1699 29.231 15.1699H21.8081V16.3622H29.0191C34.2661 16.3622 36.2539 17.2952 36.8568 17.6648C38.0506 18.3862 39.5907 19.5606 39.5907 21.9542C39.5907 23.4833 38.6953 25.4059 37.3463 26.16C36.1255 26.8456 33.896 27.4596 29.9682 27.4596H5.74768V28.6519H30.0577C34.7944 28.6519 36.418 28.1273 38.0894 27.2063C39.7609 26.2852 40.8801 24.3894 40.8801 21.9601C40.8801 19.2417 39.3609 17.6142 37.8328 16.6603" fill="white"/>
<path d="M42.549 29.8646C39.4838 27.3429 35.2695 26.082 29.9001 26.082H20.9461V27.948H29.6434C34.2099 27.948 38.3437 28.8899 40.8657 31.0629C43.3877 33.2359 45.3039 36.479 45.3039 40.4821C45.3039 44.4853 43.6504 47.2038 41.0269 49.3678C38.4033 51.5318 33.7234 52.4857 29.0375 52.4857H13.965V54.3516H29.1509C34.8009 54.3516 39.2122 53.1265 42.3879 50.6764C45.5635 48.2262 47.1544 44.7804 47.1633 40.3361C47.1633 35.8768 45.6292 32.3864 42.564 29.8676" fill="white"/>
<path d="M41.4237 32.5652C39.5165 31.1225 37.3258 29.957 31.1266 29.957H17.0988V31.7753C17.0988 31.7753 25.42 31.7157 30.8938 31.7753C36.1797 31.8319 38.1167 32.4281 39.8956 33.7426C42.1759 35.4238 43.5876 37.4954 43.5876 40.3987C43.5876 43.3019 42.152 45.1679 39.8657 46.861C37.5258 48.5809 33.9501 48.6017 32.4906 48.6494H24.832V50.4677C24.832 50.4677 28.3718 50.5154 30.5596 50.4677C35.5738 50.3515 38.5555 50.0534 41.3252 47.9996C43.9249 46.0681 45.3008 43.5285 45.3008 40.3033C45.3008 36.0587 43.1757 33.9125 41.4207 32.5801" fill="white"/>
<path d="M20.0951 38.7411H33.2365V37.7246H20.0951V38.7411Z" fill="white"/>
<path d="M25.5156 42.2972H33.1623V41.4238H25.5156V42.2972Z" fill="white"/>
<path d="M13.9591 38.7411H17.8511V37.7246H13.9591V38.7411Z" fill="white"/>
<path d="M11.5326 42.368H23.3578V41.3516H11.5326V42.368Z" fill="white"/>
<path d="M14.4456 16.2781H19.0539V15.4375H14.4456V16.2781Z" fill="white"/>
<path d="M11.2365 23.0782H21.7902V22.1035H11.2365V23.0782Z" fill="white"/>
<path d="M11.5326 50.3236H22.6594V49.1074H11.5326V50.3236Z" fill="white"/>
<path d="M8.7572 54.2763H11.5389V52.5117H8.7572V54.2763Z" fill="white"/>
<path d="M15.7111 20.1017H33.1862V19.127H15.7111V20.1017Z" fill="white"/>
<path d="M24.4498 23.0782H32.8546V22.1035H24.4498V23.0782Z" fill="white"/>
<path d="M40.495 35.1518C39.0594 34.2844 37.8089 33.7031 31.8813 33.7031H22.4349V34.8746H31.6873C36.9343 34.8746 38.9281 35.7688 39.528 36.1295C40.704 36.827 42.262 37.9597 42.262 40.2698C42.262 41.7601 41.3666 43.6023 40.0145 44.3296C38.7968 44.9913 36.5643 45.5845 32.6364 45.5845H8.40698V46.741H32.714C37.4537 46.741 39.0803 46.2343 40.7487 45.349C42.4172 44.4637 43.5364 42.6275 43.5364 40.2817C43.5364 37.6616 42.0202 36.0907 40.495 35.1697" fill="white"/>
<path d="M65.3788 32.5382V43.1736H71.1959C73.712 43.1736 75.661 42.6937 77.0488 41.7309C78.3889 40.8665 79.1799 39.3672 79.1381 37.7754C79.1381 34.282 76.1982 32.5352 70.3154 32.5382H65.3788ZM65.3788 19.8789V29.4173H69.7782C72.1241 29.4173 73.9687 28.9613 75.3118 28.0492C76.622 27.2026 77.3861 25.7301 77.3264 24.1742C77.3264 21.3007 74.9894 19.864 70.3124 19.864L65.3788 19.8789ZM61.0958 46.3094V16.7461H71.5033C74.6641 16.7461 77.1712 17.3721 79.0247 18.621C80.8781 19.8699 81.8034 21.5004 81.8064 23.5065C81.8302 25.125 81.2273 26.6929 80.123 27.8793C79.0008 29.1163 77.4547 29.9956 75.4819 30.5172V30.5977C77.9472 30.8332 79.9201 31.5873 81.3975 32.8572C82.857 34.0822 83.6748 35.9095 83.6181 37.8142C83.6181 40.3419 82.4958 42.3897 80.2514 43.9575C78.0069 45.5254 75.1745 46.3094 71.757 46.3094H61.0958Z" fill="white"/>
<path d="M88.3869 46.3092H92.5654V25.1994H88.3869V46.3092ZM90.5299 19.837C89.8404 19.8579 89.1659 19.6373 88.6167 19.22C88.1153 18.8563 87.8198 18.2751 87.8258 17.6551C87.8198 17.0321 88.1153 16.4449 88.6167 16.0753C89.1629 15.652 89.8374 15.4284 90.5299 15.4463C91.2343 15.4284 91.9207 15.649 92.4818 16.0753C93.3444 16.6982 93.5414 17.8995 92.9176 18.7639C92.7952 18.9308 92.649 19.0799 92.4818 19.1991C91.9237 19.6313 91.2343 19.8579 90.5299 19.837Z" fill="white"/>
<path d="M111.065 46.103C110.071 46.5442 108.77 46.7647 107.161 46.7618C102.586 46.7618 100.297 44.6991 100.297 40.5767V28.0842H95.8196V25.1989H100.297V20.0451L104.475 18.9512V25.2108H111.056V28.0962H104.484V39.9924C104.484 41.4053 104.783 42.4188 105.379 43.0209C105.976 43.623 106.958 43.9151 108.34 43.9151C109.298 43.9419 110.241 43.6975 111.068 43.2117V46.1" fill="white"/>
<path d="M149.039 46.3079H145.12V28.0626C145.141 26.295 145.249 24.5274 145.449 22.7717H145.356C145.105 23.6808 144.768 24.5632 144.347 25.4067L132.85 46.3079H130.925L119.452 25.5587C119.02 24.6675 118.682 23.7345 118.444 22.7717H118.351C118.503 24.5423 118.566 26.3218 118.539 28.0983V46.3079H114.737V19.1113H119.945L130.269 38.075C130.875 39.1183 131.394 40.2092 131.818 41.3389H131.958C132.63 39.8485 133.17 38.7367 133.579 38.0005L144.112 19.1113H149.039V46.3079Z" fill="white"/>
<path d="M170.295 35.6296L163.998 36.3331C162.058 36.5507 160.595 36.9382 159.61 37.4956C158.625 38.053 158.127 39.0366 158.118 40.4525C158.109 41.4719 158.625 42.4258 159.482 42.9802C160.389 43.633 161.601 43.9608 163.114 43.9579C165.189 43.9579 166.902 43.3707 168.254 42.1962C169.573 41.0904 170.319 39.445 170.281 37.7251L170.295 35.6296ZM174.474 46.3097H170.295V43.01H170.197C168.376 45.5347 165.699 46.7985 162.162 46.7985C159.56 46.7985 157.524 46.2411 156.053 45.1293C154.629 44.1069 153.805 42.4466 153.847 40.6969C153.847 36.7533 156.721 34.4552 162.47 33.8083L170.295 32.9141C170.295 29.3372 168.505 27.5428 164.923 27.5338C161.885 27.504 158.909 28.4102 156.405 30.1301V26.6843C158.972 25.3638 161.929 24.7051 165.281 24.7051C171.421 24.7051 174.489 27.3311 174.489 32.5803V46.3097H174.474Z" fill="white"/>
<path d="M193.892 28.614C193.16 28.1579 192.104 27.9314 190.728 27.9314C189.003 27.9045 187.358 28.6557 186.251 29.9732C185.057 31.3354 184.46 33.1894 184.46 35.5413V46.3018H180.281V25.198H184.46V29.5469H184.562C185.099 28.14 186.051 26.9268 187.292 26.0714C188.498 25.2457 189.934 24.8105 191.396 24.8254C192.241 24.7956 193.083 24.8969 193.898 25.1235V28.614" fill="white"/>
<path d="M208.454 46.103C207.469 46.5442 206.168 46.7647 204.553 46.7618C199.978 46.7618 197.689 44.6991 197.689 40.5767V28.0842H193.212V25.1989H197.689V20.0451L201.867 18.9512V25.2108H208.433V28.0962H201.867V39.9924C201.867 41.4053 202.166 42.4188 202.763 43.0209C203.36 43.623 204.341 43.9151 205.72 43.9151C206.678 43.9419 207.625 43.6975 208.448 43.2117V46.1" fill="white"/>
</g>
<defs>
<clipPath id="clip0_9_358">
<rect width="214" height="62" fill="white" transform="translate(0.0856934)"/>
</clipPath>
</defs>
</svg>
