<svg width="266" height="62" viewBox="0 0 266 62" fill="none" xmlns="http://www.w3.org/2000/svg">
<g clip-path="url(#clip0_9_384)">
<path d="M9.90414 5.01932L0.783508 10.0957V32.6826L9.56212 38.0442L18.3407 43.3487L21.818 41.5235C23.6991 40.5538 25.4662 39.5271 25.6942 39.356C25.9223 39.1849 21.875 36.4471 16.7446 33.3671L7.33896 27.6633V14.9439L13.0964 11.8068L18.9108 8.66973L27.7464 14.0313C32.5917 16.9972 36.924 19.5639 37.38 19.735C38.0071 19.9632 38.1211 19.2217 38.0071 15.6283L37.8361 11.1794L28.7154 5.5897C23.6991 2.50966 19.4808 0 19.3098 0C19.1388 0 14.9205 2.28151 9.90414 5.01932Z" fill="white"/>
<path d="M70.0443 11.0077C63.6599 12.89 58.9856 16.6545 56.4204 22.1301C55.1093 24.982 54.9383 26.0087 54.9383 31.5984C54.9383 36.8458 55.1663 38.3288 56.1924 40.5533C58.9286 46.4852 65.028 51.0482 72.1535 52.4171C76.0868 53.2157 81.2741 52.4171 87.3165 50.1356L90.5658 48.9378V46.0859C90.5658 44.5459 90.3948 43.2911 90.1667 43.2911C89.9957 43.2911 88.2286 43.9185 86.3475 44.66C75.1177 49.166 66.5101 47.0556 62.2348 38.7851C58.9286 32.4539 59.8406 26.3509 64.914 20.8182C70.2154 15.0574 77.1128 14.373 86.7465 18.6508L89.4827 19.8486L89.3117 16.5974L89.1407 13.3463L85.4354 12.0344C80.8751 10.3803 73.6926 9.92402 70.0443 11.0077Z" fill="white"/>
<path d="M121.745 14.6576C119.75 16.8251 121.289 19.9051 124.368 19.9051C126.876 19.9051 128.016 16.3688 126.021 14.6006C124.653 13.3458 122.886 13.4028 121.745 14.6576Z" fill="white"/>
<path d="M15.7755 20.5908C13.9514 21.5605 12.4693 22.5301 12.4693 22.7012C12.4693 22.9294 16.5166 25.4961 21.4759 28.5191L30.4255 33.9947L30.5966 40.497L30.7676 46.9993L25.4662 49.8512C22.559 51.3912 19.8798 52.7601 19.5378 52.8742C19.1958 52.9883 14.9205 50.5927 9.96113 47.5697C5.05879 44.6037 0.954505 42.1511 0.783493 42.1511C0.612481 42.1511 0.498473 44.1474 0.612481 46.543L0.783493 50.9919L9.79012 56.4676L18.7967 62.0002L28.3164 56.7527L37.8361 51.5623V29.4317L29.1145 24.0701C24.3261 21.1612 20.1078 18.7656 19.7088 18.7656C19.3098 18.7656 17.5427 19.6212 15.7755 20.5908Z" fill="white"/>
<path d="M178.636 24.4697L173.505 29.6031H178.921V37.9877C178.921 45.4596 179.035 46.6574 180.061 48.3115C182.113 51.6197 186.901 52.7604 191.462 50.9352C193.571 50.0797 193.742 49.8515 193.742 47.7982C193.742 46.6004 193.685 45.5737 193.571 45.5737C193.514 45.5737 192.431 46.087 191.177 46.7144C188.269 48.1974 187.129 48.1404 185.476 46.4293C184.108 45.1174 184.051 44.7752 184.051 37.3032V29.6031H192.602V24.4697H184.108L183.937 21.903L183.766 19.2793L178.636 24.4697Z" fill="white"/>
<path d="M140.158 25.6658C139.075 26.3502 138.106 27.0917 137.992 27.3769C137.593 28.4606 136.738 27.8332 136.738 26.4643C136.738 25.0954 136.51 25.0384 134.173 25.0384H131.608V51.8461H136.738V31.8829L139.417 30.1718C142.495 28.1755 144.605 28.0043 146.486 29.5444C147.797 30.6281 147.854 30.9703 148.139 41.123L148.424 51.5609L150.875 51.732L153.269 51.9031V41.2941C153.269 29.8866 153.041 28.9169 150.191 26.2362C148.025 24.1828 142.951 23.8976 140.158 25.6658Z" fill="white"/>
<path d="M160.622 25.4393C157.316 27.4926 156.233 32.2268 158.342 35.592C158.912 36.5046 160.907 38.1587 162.731 39.2424C167.235 41.8661 168.66 43.235 168.66 44.7751C168.66 47.5129 163.872 48.0832 159.368 45.9158L156.632 44.5469L156.803 47.1706L156.974 49.7944L160.394 50.8781C167.976 53.2166 173.961 50.3648 173.961 44.3758C173.961 41.5809 172.137 39.5276 166.38 35.7631C162.389 33.1394 161.363 31.2001 163.301 29.7741C164.784 28.6904 166.893 28.8615 169.971 30.4015L172.65 31.7134V29.2038C172.65 26.8082 172.536 26.6371 170.256 25.6104C167.235 24.2415 162.674 24.1844 160.622 25.4393Z" fill="white"/>
<path d="M249.834 25.0965C247.325 25.781 243.563 30.1158 242.765 33.0818C240.941 39.8693 243.278 47.3983 248.123 50.4212C251.829 52.7028 257.586 52.8168 262.032 50.7635C264.94 49.3946 264.997 49.3375 264.997 46.9419V44.4893L262.032 45.8582C258.156 47.6834 253.653 47.7975 251.031 46.1434C249.093 44.9456 247.325 41.9797 247.325 39.9263C247.325 38.7856 247.553 38.7285 256.446 38.7285H265.567V37.1315C265.567 32.5114 262.659 27.0358 259.239 25.3247C257.472 24.412 252.627 24.298 249.834 25.0965ZM258.156 30.1729C258.84 30.8573 259.581 31.9981 259.866 32.7966C261.063 35.8196 260.949 35.8766 253.881 35.8766C249.663 35.8766 247.325 35.6485 247.325 35.3063C247.325 34.1085 249.036 31.3707 250.518 30.2299C252.57 28.6328 256.56 28.5758 258.156 30.1729Z" fill="white"/>
<path d="M99.6858 25.9513C94.8404 28.0617 91.5912 32.9669 91.5912 38.2144C91.5912 44.3174 95.1254 49.1086 101.054 51.0479C111.315 54.4701 121.632 45.3441 119.01 35.1343C118.212 31.8261 114.564 27.5483 111.372 26.1224C108.521 24.8105 102.479 24.7535 99.6858 25.9513ZM110.402 31.1417C113.31 33.3091 114.621 35.8758 114.336 38.8988C113.481 48.196 100.427 50.0212 97.1206 41.3514C95.4105 36.9595 97.3486 32.3395 101.681 30.4002C103.961 29.3165 108.464 29.7157 110.402 31.1417Z" fill="white"/>
<path d="M121.348 38.4429V51.8468H126.478V25.0391H121.348V38.4429Z" fill="white"/>
<path d="M200.811 26.1233C188.099 31.8841 191.405 50.2502 205.428 51.6762C218.653 53.0451 226.063 37.1316 216.202 28.4618C215.004 27.4352 213.237 26.2374 212.211 25.8381C209.475 24.6973 203.604 24.8685 200.811 26.1233ZM210.444 30.4011C214.833 32.2263 216.829 36.9034 215.119 41.3524C211.812 50.0221 198.758 48.1969 197.903 38.8997C197.675 36.6753 197.903 35.7627 198.986 34.1656C201.837 30.0018 206.112 28.5759 210.444 30.4011Z" fill="white"/>
<path d="M223.954 38.4429V51.8468H229.084V43.6904C229.084 35.534 229.084 35.477 230.795 32.9103C233.531 28.8036 236.096 28.2332 239.402 31.1421C240.428 31.9977 240.485 31.9406 242.366 28.8606C243.012 27.8339 242.727 26.9403 241.511 26.1798C237.92 24.0124 233.075 25.1531 230.281 28.9176L229.141 30.4576L229.084 27.7198V25.0391H223.954V38.4429Z" fill="white"/>
</g>
<defs>
<clipPath id="clip0_9_384">
<rect width="265" height="62" fill="white" transform="translate(0.566772)"/>
</clipPath>
</defs>
</svg>
